<?xml version="1.0" encoding="utf-8"?>
<!-- Generator: Adobe Illustrator 19.0.0, SVG Export Plug-In . SVG Version: 6.00 Build 0)  -->
<svg version="1.1" id="Layer_1" xmlns="http://www.w3.org/2000/svg" xmlns:xlink="http://www.w3.org/1999/xlink" x="0px" y="0px"
	 viewBox="0 0 500 500" style="enable-background:new 0 0 500 500;" xml:space="preserve">
<style type="text/css">
	.st0{fill:#A6A6A6;}
	.st1{fill:#FFFFFF;}
</style>
<g id="XMLID_1_">
	<path id="XMLID_3_" class="st0" d="M419.5,304.1H80.3c-7,0-12.8-5.8-12.8-12.8v-82.6c0-7,5.7-12.8,12.8-12.8h339.2
		c7,0,13,5.7,13,12.8v82.6C432.5,298.3,426.6,304.1,419.5,304.1z"/>
	<path id="XMLID_4_" d="M429.9,291.3c0,5.7-4.6,10.4-10.4,10.4H80.3c-5.7,0-10.4-4.6-10.4-10.4v-82.6c0-5.7,4.7-10.4,10.4-10.4
		h339.2c5.7,0,10.4,4.7,10.4,10.4L429.9,291.3z"/>
	<path id="XMLID_5_" class="st1" d="M149,249.4c-0.1-8.7,7.1-13,7.5-13.2c-4.1-6-10.4-6.8-12.6-6.8c-5.3-0.6-10.5,3.2-13.2,3.2
		c-2.8,0-6.9-3.1-11.4-3c-5.8,0.1-11.2,3.4-14.2,8.6c-6.1,10.6-1.6,26.2,4.3,34.8c2.9,4.2,6.4,8.9,10.9,8.7c4.4-0.2,6-2.8,11.3-2.8
		c5.3,0,6.8,2.8,11.4,2.7c4.7-0.1,7.7-4.2,10.5-8.5c3.4-4.8,4.8-9.6,4.8-9.8C158.1,263.3,149,259.9,149,249.4z"/>
	<path id="XMLID_6_" class="st1" d="M140.3,223.8c2.4-3,4-7,3.5-11.1c-3.4,0.2-7.7,2.4-10.2,5.3c-2.2,2.5-4.1,6.7-3.6,10.6
		C133.9,228.9,137.8,226.7,140.3,223.8z"/>
	<path id="XMLID_9_" class="st1" d="M212.5,281.1h-6.1l-3.4-10.6h-11.7l-3.2,10.6h-6l11.6-36h7.2L212.5,281.1z M202,266.1l-3-9.4
		c-0.3-1-0.9-3.2-1.8-6.8h-0.1c-0.4,1.5-0.9,3.8-1.7,6.8l-3,9.4H202z"/>
	<path id="XMLID_12_" class="st1" d="M242.3,267.8c0,4.4-1.2,7.9-3.6,10.5c-2.1,2.3-4.8,3.4-8,3.4c-3.4,0-5.9-1.2-7.4-3.7h-0.1v13.7
		h-5.8v-28c0-2.8-0.1-5.6-0.2-8.5h5.1l0.3,4.1h0.1c1.9-3.1,4.8-4.6,8.8-4.6c3.1,0,5.6,1.2,7.7,3.6
		C241.3,260.7,242.3,263.9,242.3,267.8z M236.5,268c0-2.5-0.6-4.6-1.7-6.2c-1.2-1.7-2.9-2.6-5-2.6c-1.4,0-2.7,0.5-3.9,1.4
		c-1.2,0.9-1.9,2.2-2.3,3.7c-0.2,0.7-0.3,1.3-0.3,1.8v4.3c0,1.9,0.6,3.5,1.7,4.8c1.2,1.3,2.7,1.9,4.5,1.9c2.2,0,3.9-0.8,5.1-2.5
		C235.8,273,236.5,270.8,236.5,268z"/>
	<path id="XMLID_15_" class="st1" d="M272.2,267.8c0,4.4-1.2,7.9-3.6,10.5c-2.1,2.3-4.8,3.4-8,3.4c-3.4,0-5.9-1.2-7.4-3.7h-0.1v13.7
		h-5.8v-28c0-2.8-0.1-5.6-0.2-8.5h5.1l0.3,4.1h0.1c1.9-3.1,4.8-4.6,8.8-4.6c3.1,0,5.6,1.2,7.7,3.6
		C271.1,260.7,272.2,263.9,272.2,267.8z M266.3,268c0-2.5-0.6-4.6-1.7-6.2c-1.2-1.7-2.9-2.6-5-2.6c-1.4,0-2.7,0.5-3.9,1.4
		c-1.2,0.9-1.9,2.2-2.3,3.7c-0.2,0.7-0.3,1.3-0.3,1.8v4.3c0,1.9,0.6,3.5,1.7,4.8c1.2,1.3,2.7,1.9,4.5,1.9c2.2,0,3.9-0.8,5.1-2.5
		C265.7,273,266.3,270.8,266.3,268z"/>
	<path id="XMLID_16_" class="st1" d="M305.5,271c0,3.1-1.1,5.6-3.2,7.5c-2.3,2.1-5.6,3.1-9.8,3.1c-3.9,0-7-0.7-9.3-2.2l1.3-4.8
		c2.5,1.5,5.3,2.3,8.3,2.3c2.2,0,3.9-0.5,5.1-1.5c1.2-1,1.8-2.3,1.8-3.9c0-1.5-0.5-2.7-1.5-3.7c-1-1-2.6-1.9-5-2.8
		c-6.3-2.3-9.4-5.8-9.4-10.3c0-3,1.1-5.4,3.3-7.3c2.2-1.9,5.1-2.8,8.8-2.8c3.3,0,6,0.6,8.2,1.7l-1.4,4.7c-2-1.1-4.3-1.7-6.9-1.7
		c-2,0-3.6,0.5-4.7,1.5c-1,0.9-1.4,2-1.4,3.3c0,1.4,0.5,2.6,1.7,3.5c1,0.9,2.7,1.8,5.2,2.8c3.1,1.2,5.4,2.7,6.8,4.4
		C304.8,266.4,305.5,268.5,305.5,271z"/>
	<path id="XMLID_17_" class="st1" d="M324.6,259.5h-6.4v12.6c0,3.2,1.1,4.8,3.4,4.8c1,0,1.9-0.1,2.6-0.3l0.2,4.4
		c-1.1,0.4-2.6,0.6-4.5,0.6c-2.3,0-4.1-0.7-5.3-2.1c-1.3-1.4-1.9-3.7-1.9-7v-13.1h-3.8v-4.3h3.8v-4.8l5.7-1.7v6.5h6.4V259.5z"/>
	<path id="XMLID_20_" class="st1" d="M353.3,267.9c0,4-1.1,7.3-3.4,9.8c-2.4,2.6-5.6,4-9.5,4c-3.8,0-6.8-1.3-9.1-3.8
		c-2.3-2.5-3.4-5.7-3.4-9.6c0-4,1.2-7.3,3.5-9.9c2.3-2.6,5.5-3.8,9.4-3.8c3.8,0,6.9,1.3,9.2,3.8C352.2,260.9,353.3,264,353.3,267.9z
		 M347.3,268.1c0-2.4-0.5-4.4-1.5-6.2c-1.2-2.1-2.9-3.1-5.2-3.1c-2.3,0-4.1,1-5.3,3.1c-1,1.7-1.5,3.8-1.5,6.3c0,2.4,0.5,4.4,1.5,6.2
		c1.2,2.1,3,3.1,5.2,3.1c2.2,0,3.9-1.1,5.2-3.2C346.7,272.6,347.3,270.5,347.3,268.1z"/>
	<path id="XMLID_21_" class="st1" d="M372,260.2c-0.6-0.1-1.2-0.2-1.8-0.2c-2,0-3.6,0.8-4.7,2.3c-1,1.4-1.4,3.1-1.4,5.1v13.6h-5.8
		l0.1-17.8c0-3-0.1-5.7-0.2-8.2h5l0.2,5h0.2c0.6-1.7,1.6-3.1,2.9-4.1c1.3-0.9,2.7-1.4,4.2-1.4c0.5,0,1,0,1.4,0.1V260.2z"/>
	<path id="XMLID_24_" class="st1" d="M397.8,266.9c0,1-0.1,1.9-0.2,2.6h-17.3c0.1,2.6,0.9,4.5,2.5,5.9c1.5,1.2,3.3,1.8,5.7,1.8
		c2.6,0,4.9-0.4,7-1.2l0.9,4c-2.5,1.1-5.4,1.6-8.7,1.6c-4,0-7.2-1.2-9.5-3.5c-2.3-2.4-3.4-5.5-3.4-9.5c0-3.9,1.1-7.2,3.2-9.8
		c2.2-2.8,5.3-4.2,9.1-4.2c3.7,0,6.6,1.4,8.5,4.2C397,260.9,397.8,263.7,397.8,266.9z M392.3,265.4c0-1.7-0.3-3.2-1.1-4.4
		c-1-1.6-2.5-2.4-4.6-2.4c-1.9,0-3.4,0.8-4.6,2.3c-1,1.2-1.5,2.7-1.7,4.5L392.3,265.4L392.3,265.4z"/>
	<path id="XMLID_27_" class="st1" d="M200.1,223c0,3.2-1,5.6-2.9,7.2c-1.8,1.5-4.3,2.2-7.5,2.2c-1.6,0-3-0.1-4.1-0.2v-17.4
		c1.5-0.2,3.1-0.4,4.9-0.4c3.1,0,5.4,0.7,7,2C199.2,218,200.1,220.2,200.1,223z M197.1,223.1c0-2.1-0.5-3.6-1.6-4.7
		c-1.1-1.1-2.7-1.7-4.8-1.7c-0.9,0-1.7,0.1-2.3,0.2v13.2c0.3,0.1,1,0.1,1.9,0.1c2.2,0,3.8-0.6,5-1.8
		C196.5,227.1,197.1,225.4,197.1,223.1z"/>
	<path id="XMLID_30_" class="st1" d="M216,225.8c0,2-0.6,3.6-1.7,4.8c-1.2,1.3-2.7,1.9-4.7,1.9c-1.9,0-3.4-0.6-4.5-1.9
		c-1.1-1.2-1.7-2.8-1.7-4.7c0-2,0.6-3.6,1.7-4.9c1.1-1.3,2.7-1.9,4.6-1.9c1.9,0,3.4,0.6,4.5,1.9C215.4,222.3,216,223.9,216,225.8z
		 M213,225.9c0-1.2-0.3-2.2-0.8-3c-0.6-1-1.4-1.5-2.5-1.5c-1.1,0-2,0.5-2.6,1.5c-0.5,0.8-0.8,1.9-0.8,3.1c0,1.2,0.3,2.2,0.8,3
		c0.6,1,1.5,1.5,2.6,1.5c1.1,0,1.9-0.5,2.5-1.6C212.8,228.1,213,227,213,225.9z"/>
	<path id="XMLID_31_" class="st1" d="M237.2,219.5l-4,12.7h-2.6l-1.7-5.5c-0.4-1.4-0.8-2.8-1-4.1h-0.1c-0.2,1.4-0.6,2.8-1,4.1
		l-1.8,5.5h-2.6l-3.8-12.7h2.9l1.4,6.1c0.3,1.4,0.6,2.8,0.9,4.1h0.1c0.2-1.1,0.6-2.4,1.1-4.1l1.8-6.1h2.3l1.7,6
		c0.4,1.5,0.8,2.8,1,4.2h0.1c0.2-1.3,0.5-2.7,0.9-4.2l1.5-6L237.2,219.5L237.2,219.5z"/>
	<path id="XMLID_32_" class="st1" d="M251.9,232.2h-2.8v-7.3c0-2.2-0.9-3.4-2.6-3.4c-0.8,0-1.5,0.3-2,0.9c-0.5,0.6-0.8,1.3-0.8,2.2
		v7.6h-2.8v-9.1c0-1.1,0-2.3-0.1-3.6h2.5l0.1,2h0.1c0.3-0.6,0.8-1.1,1.5-1.5c0.8-0.5,1.6-0.7,2.6-0.7c1.2,0,2.2,0.4,3,1.2
		c1,0.9,1.5,2.4,1.5,4.2V232.2z"/>
	<rect id="XMLID_33_" x="256.9" y="213.7" class="st1" width="2.8" height="18.6"/>
	<path id="XMLID_36_" class="st1" d="M276.4,225.8c0,2-0.6,3.6-1.7,4.8c-1.2,1.3-2.7,1.9-4.7,1.9c-1.9,0-3.4-0.6-4.5-1.9
		c-1.1-1.2-1.7-2.8-1.7-4.7c0-2,0.6-3.6,1.7-4.9c1.1-1.3,2.7-1.9,4.6-1.9c1.9,0,3.4,0.6,4.5,1.9
		C275.8,222.3,276.4,223.9,276.4,225.8z M273.4,225.9c0-1.2-0.3-2.2-0.8-3c-0.6-1-1.4-1.5-2.5-1.5c-1.1,0-2,0.5-2.6,1.5
		c-0.5,0.8-0.8,1.9-0.8,3.1c0,1.2,0.3,2.2,0.8,3c0.6,1,1.5,1.5,2.6,1.5c1.1,0,1.9-0.5,2.5-1.6C273.2,228.1,273.4,227,273.4,225.9z"
		/>
	<path id="XMLID_39_" class="st1" d="M290.1,232.2h-2.5l-0.2-1.5h-0.1c-0.9,1.2-2.1,1.8-3.7,1.8c-1.2,0-2.2-0.4-2.9-1.2
		c-0.7-0.7-1-1.6-1-2.6c0-1.6,0.6-2.7,2-3.6c1.3-0.8,3.1-1.2,5.5-1.2v-0.2c0-1.7-0.9-2.5-2.6-2.5c-1.3,0-2.4,0.3-3.3,0.9l-0.6-1.9
		c1.2-0.7,2.6-1.1,4.4-1.1c3.3,0,5,1.8,5,5.3v4.7C289.9,230.5,290,231.5,290.1,232.2z M287.2,227.9v-2c-3.1-0.1-4.7,0.8-4.7,2.6
		c0,0.7,0.2,1.2,0.5,1.5c0.4,0.3,0.8,0.5,1.4,0.5c0.6,0,1.2-0.2,1.7-0.6c0.5-0.4,0.9-0.9,1-1.5L287.2,227.9z"/>
	<path id="XMLID_42_" class="st1" d="M306.2,232.2h-2.5l-0.1-2h-0.1c-0.8,1.6-2.2,2.3-4.1,2.3c-1.5,0-2.8-0.6-3.8-1.8
		c-1-1.2-1.5-2.8-1.5-4.7c0-2.1,0.5-3.7,1.7-5c1.1-1.2,2.4-1.8,3.9-1.8c1.7,0,2.9,0.6,3.6,1.7h0.1v-7.3h2.8v15.2
		C306.1,230.1,306.1,231.2,306.2,232.2z M303.3,226.9v-2.1c0-0.4,0-0.7-0.1-0.9c-0.2-0.7-0.5-1.3-1-1.7c-0.5-0.5-1.2-0.7-1.9-0.7
		c-1.1,0-1.9,0.4-2.5,1.3c-0.6,0.8-0.9,1.9-0.9,3.2c0,1.3,0.3,2.3,0.9,3.1c0.6,0.8,1.4,1.3,2.5,1.3c0.9,0,1.7-0.3,2.2-1
		C303,228.6,303.3,227.8,303.3,226.9z"/>
	<path id="XMLID_45_" class="st1" d="M330.4,225.8c0,2-0.6,3.6-1.7,4.8c-1.2,1.3-2.7,1.9-4.7,1.9c-1.9,0-3.4-0.6-4.5-1.9
		c-1.1-1.2-1.7-2.8-1.7-4.7c0-2,0.6-3.6,1.7-4.9c1.1-1.3,2.7-1.9,4.6-1.9c1.9,0,3.4,0.6,4.5,1.9
		C329.9,222.3,330.4,223.9,330.4,225.8z M327.5,225.9c0-1.2-0.3-2.2-0.8-3c-0.6-1-1.4-1.5-2.5-1.5c-1.1,0-2,0.5-2.6,1.5
		c-0.5,0.8-0.8,1.9-0.8,3.1c0,1.2,0.3,2.2,0.8,3c0.6,1,1.5,1.5,2.6,1.5c1.1,0,1.9-0.5,2.5-1.6C327.2,228.1,327.5,227,327.5,225.9z"
		/>
	<path id="XMLID_46_" class="st1" d="M345.7,232.2h-2.8v-7.3c0-2.2-0.9-3.4-2.6-3.4c-0.8,0-1.5,0.3-2,0.9c-0.5,0.6-0.8,1.3-0.8,2.2
		v7.6h-2.8v-9.1c0-1.1,0-2.3-0.1-3.6h2.5l0.1,2h0.1c0.3-0.6,0.8-1.1,1.5-1.5c0.8-0.5,1.6-0.7,2.6-0.7c1.2,0,2.2,0.4,3,1.2
		c1,0.9,1.5,2.4,1.5,4.2V232.2z"/>
	<path id="XMLID_47_" class="st1" d="M364.7,221.6h-3.1v6.2c0,1.6,0.6,2.4,1.7,2.4c0.5,0,0.9,0,1.3-0.1l0.1,2.1
		c-0.6,0.2-1.3,0.3-2.2,0.3c-1.1,0-2-0.3-2.6-1c-0.6-0.7-0.9-1.8-0.9-3.4v-6.4H357v-2.1h1.9v-2.3l2.8-0.8v3.2h3.1L364.7,221.6
		L364.7,221.6z"/>
	<path id="XMLID_48_" class="st1" d="M379.7,232.2h-2.8V225c0-2.3-0.9-3.4-2.6-3.4c-1.3,0-2.2,0.7-2.7,2c-0.1,0.3-0.1,0.6-0.1,1v7.7
		h-2.8v-18.6h2.8v7.7h0.1c0.9-1.4,2.2-2.1,3.8-2.1c1.2,0,2.1,0.4,2.9,1.2c1,1,1.4,2.4,1.4,4.3V232.2z"/>
	<path id="XMLID_51_" class="st1" d="M395.2,225.3c0,0.5,0,0.9-0.1,1.3h-8.5c0,1.3,0.4,2.2,1.2,2.9c0.7,0.6,1.6,0.9,2.8,0.9
		c1.3,0,2.4-0.2,3.4-0.6l0.4,2c-1.2,0.5-2.6,0.8-4.3,0.8c-2,0-3.5-0.6-4.7-1.7c-1.1-1.2-1.7-2.7-1.7-4.7c0-1.9,0.5-3.5,1.6-4.8
		c1.1-1.4,2.6-2,4.5-2c1.8,0,3.2,0.7,4.2,2C394.8,222.3,395.2,223.7,395.2,225.3z M392.5,224.5c0-0.8-0.2-1.6-0.5-2.2
		c-0.5-0.8-1.2-1.2-2.3-1.2c-0.9,0-1.7,0.4-2.3,1.2c-0.5,0.6-0.7,1.3-0.8,2.2H392.5z"/>
</g>
</svg>
