<svg width="28" height="21" viewBox="0 0 28 21" fill="none" xmlns="http://www.w3.org/2000/svg">
<path fill-rule="evenodd" clip-rule="evenodd" d="M28 2.48574C26.9693 2.90825 25.8623 3.1915 24.7007 3.32048C25.8871 2.66295 26.7971 1.6237 27.2268 0.387958C26.1159 0.994755 24.8864 1.43509 23.5778 1.67411C22.5309 0.642622 21.0376 0 19.3854 0C16.2131 0 13.6404 2.37316 13.6404 5.30094C13.6404 5.71711 13.6908 6.12189 13.789 6.50884C9.01497 6.28819 4.78231 4.17758 1.9487 0.970481C1.45467 1.7539 1.17168 2.66295 1.17168 3.63615C1.17168 5.47416 2.18579 7.09786 3.72696 8.04875C2.78572 8.0199 1.89978 7.78275 1.12466 7.38542V7.45265C1.12466 10.0209 3.10465 12.1633 5.73263 12.65C5.2512 12.7717 4.74274 12.8345 4.21942 12.8345C3.84934 12.8345 3.48949 12.8029 3.13801 12.7415C3.8688 14.8462 5.99065 16.38 8.50516 16.4234C6.53868 17.8449 4.06168 18.6925 1.37024 18.6925C0.90659 18.6925 0.449538 18.6674 0 18.619C2.54181 20.121 5.56198 21 8.80529 21C19.372 21 25.1502 12.9206 25.1502 5.91583C25.1502 5.68534 25.144 5.45739 25.133 5.22929C26.2556 4.48111 27.2294 3.54821 28 2.48574Z" fill="#39B5E3"/>
</svg>
