<svg width="26" height="25" viewBox="0 0 26 25" fill="none" xmlns="http://www.w3.org/2000/svg">
<path fill-rule="evenodd" clip-rule="evenodd" d="M4.51271 5.63567C4.52079 5.77942 4.48466 5.8979 4.58114 6.01202C5.07049 6.59087 5.54381 7.18342 6.04041 7.75587C6.22531 7.969 6.29936 8.1879 6.29846 8.46758C6.29069 10.8633 6.29396 13.2591 6.29429 15.6548C6.29431 15.7088 6.29559 15.7632 6.30146 15.8168C6.32871 16.0662 6.26124 16.2868 6.10231 16.4794C5.53236 17.1701 4.96531 17.8632 4.38859 18.5482C4.28006 18.6771 4.30506 18.8023 4.31179 18.9369H9.33764C9.31011 18.8122 9.31951 18.6761 9.25674 18.5981C8.68479 17.8877 8.10101 17.1867 7.51889 16.4846C7.38061 16.3178 7.30424 16.1294 7.29991 15.9136C7.29809 15.8222 7.30869 15.7305 7.30871 15.639C7.30926 13.6183 7.30909 11.5975 7.30936 9.57675C7.30939 9.5344 7.31286 9.49207 7.31601 9.4202C7.34439 9.4745 7.35864 9.4991 7.37044 9.5248C8.75721 12.5493 10.148 15.572 11.5231 18.6018C11.6431 18.8661 11.7691 19.0101 12.0642 18.9471C12.0722 18.9454 12.081 18.9457 12.0891 18.9471C12.1776 18.9622 12.2198 18.9233 12.2525 18.8394C12.6193 17.8978 12.9903 16.9578 13.3604 16.0175C14.2059 13.8698 15.0516 11.7221 15.8976 9.57455C15.9112 9.53988 15.9291 9.50688 15.945 9.47312C15.953 9.47557 15.961 9.47805 15.969 9.48053V9.59138C15.969 12.0704 15.9679 14.5495 15.9715 17.0286C15.9717 17.1893 15.9129 17.3046 15.8011 17.4113C15.4064 17.7878 15.0219 18.1754 14.6205 18.5445C14.4838 18.6703 14.4624 18.8018 14.4921 18.966H21.1098C21.0761 18.8419 21.0801 18.7036 21.0129 18.6346C20.6005 18.211 20.1724 17.8025 19.7484 17.3903C19.6601 17.3044 19.6108 17.2043 19.6108 17.0806C19.6109 13.9016 19.6111 10.7226 19.6109 7.54357C19.6109 7.42025 19.6537 7.31717 19.743 7.23167C20.1463 6.84597 20.5418 6.45182 20.9555 6.07767C21.096 5.95055 21.1338 5.8212 21.0964 5.63567H20.9656C19.5073 5.63567 18.0491 5.63667 16.5908 5.63345C16.4934 5.63322 16.4454 5.65915 16.4078 5.75305C15.3429 8.41785 14.2746 11.0814 13.2067 13.745C13.1916 13.7826 13.1738 13.8192 13.1513 13.8696C13.1275 13.8225 13.1099 13.7905 13.0948 13.7574C11.8818 11.097 10.6684 8.43678 9.45864 5.77487C9.41019 5.66835 9.35349 5.63255 9.23656 5.63287C7.71996 5.6371 6.20334 5.63567 4.68671 5.63567H4.51271ZM25.3333 0V25H0.333313C0.333588 24.9417 0.334088 24.8834 0.334088 24.825C0.334138 16.6094 0.334138 8.39382 0.334138 0.178225V0.000825H0.524038C8.24386 0.000825 15.9637 0.000825 23.6835 0.000775C24.2335 0.000775 24.7834 0.000275 25.3333 0Z" fill="#4A4A4A"/>
</svg>
