<svg width="27" height="24" viewBox="0 0 27 24" fill="none" xmlns="http://www.w3.org/2000/svg">
<path fill-rule="evenodd" clip-rule="evenodd" d="M22.7806 20.0503H18.9566V14.2605C18.9566 12.8052 18.4029 11.8123 17.0188 11.8123C15.963 11.8123 15.3327 12.4816 15.0575 13.1287C14.9566 13.3586 14.9317 13.683 14.9317 14.0053V20.0503H11.1067C11.1067 20.0503 11.1573 10.2422 11.1067 9.2253H14.9317V10.7576C15.44 10.0198 16.3492 8.97109 18.3782 8.97109C20.8931 8.97109 22.7806 10.5178 22.7806 13.8447V20.0503ZM7.07934 7.74808H7.05424C5.77135 7.74808 4.94105 6.91625 4.94105 5.87747C4.94105 4.81492 5.79576 4.00767 7.10437 4.00767C8.41253 4.00767 9.21796 4.81492 9.24226 5.87747C9.24226 6.91625 8.41253 7.74808 7.07934 7.74808ZM5.16689 20.0503H8.99087V9.2253H5.16689V20.0503ZM24.7157 0.0234985H2.58558C1.52587 0.0234985 0.666626 0.793354 0.666626 1.74135V22.2805C0.666626 23.2305 1.52587 24 2.58558 24H24.7157C25.7752 24 26.6346 23.2305 26.6346 22.2805V1.74135C26.6346 0.793354 25.7752 0.0234985 24.7157 0.0234985Z" fill="#236AAE"/>
</svg>
