<svg width="13" height="26" viewBox="0 0 13 26" fill="none" xmlns="http://www.w3.org/2000/svg">
<path fill-rule="evenodd" clip-rule="evenodd" d="M8.11813 26H3.23627V12.9908H0V8.12418H3.23952C3.23952 6.97159 3.22213 5.84732 3.24608 4.72386C3.26048 4.04955 3.30319 3.37154 3.39712 2.70413C3.58268 1.38532 4.32091 0.513012 5.65178 0.261809C6.42891 0.115138 7.22791 0.0379702 8.01907 0.0205566C9.67865 -0.0159968 11.3396 0.00755981 13 0.00649367V4.88028C12.0429 4.87921 11.0857 4.87398 10.1287 4.87921C9.76531 4.88119 9.39952 4.8852 9.03933 4.92688C8.38608 5.00243 8.13619 5.28191 8.12215 5.94647C8.10756 6.63961 8.11681 7.33321 8.11707 8.02661C8.11712 8.05748 8.13131 8.08839 8.14143 8.12946H13V8.18023C12.9669 8.25674 12.9279 8.33132 12.9015 8.41006C12.6231 9.24241 12.3475 10.0757 12.0694 10.9083C11.8372 11.6036 11.6028 12.2982 11.3756 12.9744H8.16161C8.15694 13.0308 8.15043 13.0727 8.15032 13.1146C8.13929 17.4097 8.12871 21.7049 8.11813 26Z" fill="#598DEF"/>
</svg>
